<?xml version="1.0" encoding="utf-8"?>
<!-- Generator: Adobe Illustrator 25.2.1, SVG Export Plug-In . SVG Version: 6.00 Build 0)  -->
<svg version="1.1" id="Layer_1" xmlns="http://www.w3.org/2000/svg" xmlns:xlink="http://www.w3.org/1999/xlink" x="0px" y="0px"
	 viewBox="0 0 612 137" style="enable-background:new 0 0 612 137;" xml:space="preserve">
<g>
	<path d="M124.8,61.7l-3.4,12h17.7v16.9h-22.5l-5,17.2H87.5l5-17.2H77.9l-5,17.2H48.8l5-17.2H40.2V73.8h18.5l3.4-12H44.2V44.9h22.6
		l4.5-15.8h24.1l-4.5,15.8h14.6l4.5-15.8h24.1l-4.5,15.8h13.5v16.9H124.8z M100.7,61.7H86.1l-3.4,12h14.6L100.7,61.7z"/>
	<path d="M251.6,86.4c0,12.8-12.8,21.5-33,21.5h-64.7V29.1h60.2c20.1,0,33,8.4,33,20.7c0,8.8-6.9,16.7-18.9,17.3
		C240.8,68,251.6,74.7,251.6,86.4z M185,59.5h23.9c3.8,0,7.1-1.8,7.1-5.6s-3.3-5.6-7.1-5.6H185V59.5z M219.3,82.6
		c0-3.8-2.9-6.2-7.4-6.2H185v12.4h26.9C216.4,88.8,219.3,86.4,219.3,82.6z"/>
	<path d="M322.2,95.5h-35.8l-5.5,12.4h-32.6l39.2-78.8h34.2l39.2,78.8h-33.1L322.2,95.5z M313.7,76.4l-9.3-20.9L295,76.4H313.7z"/>
	<path d="M464,29.1v78.8h-27.7l-41-42.9v42.9H365V29.1h33.3L433.6,67V29.1H464z"/>
	<path d="M535.4,107.9L515.9,80l-12,11.8v16.1h-31.5V29.1h31.5v30.5l28.8-30.5H570L537.7,61l34.1,46.9H535.4z"/>
</g>
</svg>
